#!OML:ASF F:\VICON\USERDATA\INSTALL\rory3\rory3.ASF
:FULLY-SPECIFIED
:DEGREES
128
root 1.5079028885906562 17.880406826493342 52.92194506627428 -3.2916846319846034 -0.016203928585422744 0.5665203606144842
lfemur 2.5808748950437757 -4.890423761794971 -24.961947020947342
ltibia 28.1880840893999
lfoot -5.915442945248488 -2.7919603878722614
ltoes -8.630002469881486
rfemur -22.19002313380414 1.029754295658114 21.78464925947619
rtibia 48.17656817029925
rfoot -9.844173497744798 -5.006650353538218
rtoes 3.6779906855144033
lowerback 1.0 -1.550239679963338 -1.9289358840029567
upperback -0.0002783725976915341 -1.9304437434187387 1.3459638524924924
thorax -5.160194153320317 -0.9452989264973781 2.834089321202641
lowerneck -16.312347554194076 -2.961364263112661 -1.477980921835768
upperneck 22.875644523712026 -3.727094984215033 0.38127746871629214
head 10.179176017233159 -1.8348948373625338 -0.07944611356774313
lclavicle -1.8529342473755224e-15 -1.466612275197778e-16
lhumerus -27.843129968817294 0.29531672410048504 81.50684904447266
lradius 27.39802044415538
lwrist 4.4428961733482994
lhand -27.107078184774412 23.989520451678466
lfingers nan
lthumb -0.501673459929243 54.10991385874042
rclavicle -1.9120176617057858e-15 -1.8601726163178616e-16
rhumerus -29.706429301262908 -22.927618951375713 -74.55814754552961
rradius 31.373072571291107
rwrist 2.7637241772358543
rhand -17.995887984073942 1.0
rfingers nan
rthumb 8.40726394989106 -7.877352296325121
129
root 1.4753987620651738 17.86232308939965 51.05307479331393 -3.4064693654092584 -0.5272406312350697 0.030358867760685637
lfemur 3.739121378239382 -4.6315935817378335 -24.305727411974797
ltibia 28.710632666628626
lfoot -5.083001130654985 -3.2497000303017347
ltoes -8.127327213238638
rfemur -22.503958397303453 1.4189323714120405 22.67974313805348
rtibia 46.24547554403663
rfoot -10.288551413851412 -4.996008862353315
rtoes 2.983901740990091
lowerback 1.0 -1.5582206745015976 -1.7260712712977915
upperback 0.013145028915043072 -1.9156242548739495 1.4989697416973724
thorax -5.131061998294414 -0.9417012372957196 2.985014132101906
lowerneck -16.31492931063524 -2.910499409758765 -1.5224839757552944
upperneck 23.094050815900165 -3.6236536669796715 0.2902284110321266
head 10.24061110686686 -1.8015472141990032 -0.0908796203393824
lclavicle -1.8561262432799593e-15 -1.4806446332688163e-16
lhumerus -27.507793128454928 0.0650600247255837 81.50398931686023
lradius 27.185797663411954
lwrist 4.254947622786679
lhand -27.003281889819867 24.109166688118137
lfingers nan
lthumb -0.3582200975603845 54.269521164992824
rclavicle -1.9176102448055004e-15 -1.875608174950554e-16
rhumerus -29.739662395891486 -23.148450951298994 -74.67064164946117
rradius 31.256154012970708
rwrist 2.365674766375599
rhand -17.990525955327936 1.0
rfingers nan
rthumb 8.416503329121323 -7.890332942743334
130
root 1.5026012624977891 17.866743596357253 52.70895325018366 -3.2768119743517135 -0.6218442918854631 -0.27245792839020355
lfemur 4.339976009099031 -4.431059397185672 -23.700405171967766
ltibia 29.87170329039454
lfoot -4.737544536703938 -3.716491290002008
ltoes -7.674165948794647
rfemur -22.933574303270774 1.622230856535832 22.970822021049372
rtibia 44.26849741140969
rfoot -10.719933564025403 -5.06647566711214
rtoes 2.290814259973242
lowerback 1.0 -1.6253720113321584 -1.5369564404253668
upperback 0.00996767453277922 -1.958720775342684 1.6648178546072305
thorax -5.119139856280273 -0.9644930449627165 3.08117706134589
lowerneck -16.304569586944666 -2.873007703853567 -1.5552711675227462
upperneck 23.277665740326572 -3.545496681838555 0.1970565492202188
head 10.287050323668426 -1.7775478372991815 -0.10866899452267764
lclavicle -1.8575328549240066e-15 -1.4855391263719209e-16
lhumerus -27.24051684127619 -0.19575632436863977 81.52579543524807
lradius 26.838621308630554
lwrist 4.2306120540315755
lhand -26.959255880150145 24.165791682217996
lfingers nan
lthumb -0.3162379457134402 54.29041565362133
rclavicle -1.921394803320108e-15 -1.8906423818612315e-16
rhumerus -29.776035902617988 -23.437227887600358 -74.80724766262003
rradius 31.12713143826752
rwrist 2.084830992859443
rhand -17.98817292563432 1.0
rfingers nan
rthumb 8.426527274984563 -7.8709183527004125
131
root 1.4726653021715312 17.8584622883357 51.0148167636293 -3.285332473255511 -0.8212988561296666 -1.185075514869184
lfemur 4.2621913686185255 -4.16923513754273 -22.536465324246763
ltibia 31.905950401645665
lfoot -4.1115426115760325 -3.0990944113503396
ltoes -7.622914180538386
rfemur -23.192281147602344 1.8579226298542277 23.791783071008393
rtibia 42.20210628231445
rfoot -11.11413852578533 -5.300884266121993
rtoes 1.6321049133380912
lowerback 1.0 -1.5972577241603494 -0.945865428593142
upperback 0.002214999506797599 -1.808409575229901 1.8854851275177387
thorax -5.163214930091648 -0.9033504378556976 3.043448717102943
lowerneck -16.293437369951295 -2.8503873819561276 -1.5557432425385245
upperneck 23.391494099933457 -3.496210555166917 0.1053307963396444
head 10.307333725748473 -1.7641020226945192 -0.13273182484119725
lclavicle -1.857998173581456e-15 -1.4861205741484006e-16
lhumerus -27.043735205336475 -0.42026406887439993 81.56454902198197
lradius 26.389867823798575
lwrist 4.411976278210512
lhand -26.962122574089225 24.19076358067502
lfingers nan
lthumb -0.31493265539355786 54.32056609803104
rclavicle -1.924431628538358e-15 -1.9065173250262697e-16
rhumerus -29.826179932758254 -23.760603172448654 -74.98447227727021
rradius 31.01956212644039
rwrist 2.0058100107634553
rhand -17.98490666947911 1.0
rfingers nan
rthumb 8.42632023086672 -7.849206550341222
